<svg width="32" height="32" viewBox="0 0 32 32" fill="none" xmlns="http://www.w3.org/2000/svg">
<circle cx="16" cy="16" r="16" fill="#2C2C2C"/>
<path d="M12.6668 26C14.5068 26 16.0002 24.5066 16.0002 22.6666V19.3333H12.6668C10.8268 19.3333 9.3335 20.8266 9.3335 22.6666C9.3335 24.5066 10.8268 26 12.6668 26Z" fill="#0ACF83"/>
<path d="M9.3335 16C9.3335 14.16 10.8268 12.6667 12.6668 12.6667H16.0002V19.3334H12.6668C10.8268 19.3334 9.3335 17.84 9.3335 16Z" fill="#A259FF"/>
<path d="M9.3335 9.33333C9.3335 7.49333 10.8268 6 12.6668 6H16.0002V12.6667H12.6668C10.8268 12.6667 9.3335 11.1733 9.3335 9.33333Z" fill="#F24E1E"/>
<path d="M16 6H19.3333C21.1733 6 22.6667 7.49333 22.6667 9.33333C22.6667 11.1733 21.1733 12.6667 19.3333 12.6667H16V6Z" fill="#FF7262"/>
<path d="M22.6667 16C22.6667 17.84 21.1733 19.3334 19.3333 19.3334C17.4933 19.3334 16 17.84 16 16C16 14.16 17.4933 12.6667 19.3333 12.6667C21.1733 12.6667 22.6667 14.16 22.6667 16Z" fill="#1ABCFE"/>
</svg>
