<svg width="32" height="32" viewBox="0 0 32 32" fill="none" xmlns="http://www.w3.org/2000/svg">
<circle cx="16" cy="16" r="16" fill="#0A66C2"/>
<path d="M24.665 23.3334H21.3522V18.1363C21.3522 16.897 21.3301 15.3017 19.6293 15.3017C17.9038 15.3017 17.6398 16.6519 17.6398 18.0461V23.333H14.3271V12.6458H17.5073V14.1063H17.5519C18.1994 12.9972 19.4079 12.3323 20.6897 12.38C24.0473 12.38 24.6664 14.5924 24.6664 17.4706L24.665 23.3334Z" fill="white"/>
<path d="M10.5894 11.1849C10.5892 11.1849 10.5891 11.1849 10.589 11.1849C9.53433 11.1849 8.6665 10.3156 8.6665 9.25916C8.6665 8.20269 9.53433 7.33334 10.589 7.33334C11.6435 7.33334 12.5112 8.20249 12.5114 9.25876C12.5114 9.25886 12.5114 9.25896 12.5114 9.25916C12.5114 10.3154 11.6438 11.1848 10.5894 11.1849Z" fill="white"/>
<path d="M12.2459 23.3333H8.92969V12.6458H12.2459V23.3333Z" fill="white"/>
</svg>
