<svg width="30" height="30" viewBox="0 0 30 30" fill="none" xmlns="http://www.w3.org/2000/svg">
<circle cx="15" cy="15" r="15" fill="#EF0005"/>
<path fill-rule="evenodd" clip-rule="evenodd" d="M6.5625 6.5625V22.7311V23.4375H7.26238H17.2941V22.0247H7.96227V6.5625H6.5625ZM22.7376 6.5625H12.6671V7.97529H22.0377V23.4375H23.4375V7.2689V6.5625H22.7376ZM8.58439 6.5625V19.7093V20.1017H8.97321H12.2005H12.3593L12.4728 19.9894L17.9551 14.5612V23.4375H18.7327V13.6265V12.6917L18.0716 13.3463L12.0416 19.3169H9.36204V6.5625H8.58439ZM9.90639 6.5625V18.375V18.7674H10.2952H11.6172H11.777L11.8906 18.6541L18.5036 12.0567H19.2771V23.4375H20.0547V11.6642V11.2718H19.6659H18.3439H18.1842L18.0706 11.3851L11.4575 17.9826H10.684V6.5625H9.90639ZM11.2284 6.5625V16.4913V17.4345L11.8913 16.7696L17.9599 10.6831H20.638V23.4375H21.4156V10.2907V9.89825H21.0268H17.7995H17.6392L17.5255 10.0123L12.006 15.548V6.5625H11.2284Z" fill="white"/>
</svg>
