<svg width="32" height="32" viewBox="0 0 32 32" fill="none" xmlns="http://www.w3.org/2000/svg">
<rect width="32" height="32" rx="16" fill="#8D4DFD"/>
<path d="M22.6665 9.33334H9.33317C8.4165 9.33334 7.67484 10.0833 7.67484 11L7.6665 21C7.6665 21.9167 8.4165 22.6667 9.33317 22.6667H22.6665C23.5832 22.6667 24.3332 21.9167 24.3332 21V11C24.3332 10.0833 23.5832 9.33334 22.6665 9.33334ZM22.3332 12.875L16.4415 16.5583C16.1748 16.725 15.8248 16.725 15.5582 16.5583L9.6665 12.875C9.45817 12.7417 9.33317 12.5167 9.33317 12.275C9.33317 11.7167 9.9415 11.3833 10.4165 11.675L15.9998 15.1667L21.5832 11.675C22.0582 11.3833 22.6665 11.7167 22.6665 12.275C22.6665 12.5167 22.5415 12.7417 22.3332 12.875Z" fill="white"/>
</svg>
